<svg width="170" height="30" viewBox="0 0 170 30" fill="none" xmlns="http://www.w3.org/2000/svg">
<g clip-path="url(#clip0_40_17)">
<path d="M21.4817 17.1818H14.609C13.6602 17.1818 12.8908 17.9512 12.8908 18.9V25.7727C12.8908 26.7215 13.6602 27.4909 14.609 27.4909H21.4817C22.4305 27.4909 23.1999 26.7215 23.1999 25.7727V18.9C23.1999 17.9512 22.4305 17.1818 21.4817 17.1818ZM11.1726 1.71818C11.1726 0.769423 10.4032 0 9.45444 0H2.58171C1.63295 0 0.863525 0.769423 0.863525 1.71818V8.59091C0.863525 9.53967 1.63295 10.3091 2.58171 10.3091H7.72122L11.6494 17.184C12.2454 16.1606 13.3418 15.4636 14.609 15.4636H14.624L11.1726 9.42369V6.87273H23.1999V3.43636H11.1726V1.71818ZM33.509 0H26.6363C25.6875 0 24.9181 0.769423 24.9181 1.71818V8.59091C24.9181 9.53967 25.6875 10.3091 26.6363 10.3091H33.509C34.4577 10.3091 35.2272 9.53967 35.2272 8.59091V1.71818C35.2272 0.769423 34.4577 0 33.509 0Z" fill="#4B7FB9"/>
<rect x="12.8375" y="17.1819" width="10.4165" height="10.3091" rx="1.6108" fill="#FFDA5A"/>
<circle cx="6.07158" cy="5.20817" r="1.34233" fill="#FFDA5A"/>
</g>
<path d="M51.032 11.168C51.032 12.56 50.552 13.72 49.592 14.648C48.648 15.56 47.2 16.016 45.248 16.016H42.032V23H39.848V6.272H45.248C47.136 6.272 48.568 6.728 49.544 7.64C50.536 8.552 51.032 9.728 51.032 11.168ZM45.248 14.216C46.464 14.216 47.36 13.952 47.936 13.424C48.512 12.896 48.8 12.144 48.8 11.168C48.8 9.104 47.616 8.072 45.248 8.072H42.032V14.216H45.248ZM55.9304 11.984C56.3144 11.232 56.8584 10.648 57.5624 10.232C58.2824 9.816 59.1544 9.608 60.1784 9.608V11.864H59.6024C57.1544 11.864 55.9304 13.192 55.9304 15.848V23H53.7464V9.848H55.9304V11.984ZM68.4356 23.216C67.2036 23.216 66.0836 22.936 65.0756 22.376C64.0836 21.816 63.2996 21.024 62.7236 20C62.1636 18.96 61.8836 17.76 61.8836 16.4C61.8836 15.056 62.1716 13.872 62.7476 12.848C63.3396 11.808 64.1396 11.016 65.1476 10.472C66.1556 9.912 67.2836 9.632 68.5316 9.632C69.7796 9.632 70.9076 9.912 71.9156 10.472C72.9236 11.016 73.7156 11.8 74.2916 12.824C74.8836 13.848 75.1796 15.04 75.1796 16.4C75.1796 17.76 74.8756 18.96 74.2676 20C73.6756 21.024 72.8676 21.816 71.8436 22.376C70.8196 22.936 69.6836 23.216 68.4356 23.216ZM68.4356 21.296C69.2196 21.296 69.9556 21.112 70.6436 20.744C71.3316 20.376 71.8836 19.824 72.2996 19.088C72.7316 18.352 72.9476 17.456 72.9476 16.4C72.9476 15.344 72.7396 14.448 72.3236 13.712C71.9076 12.976 71.3636 12.432 70.6916 12.08C70.0196 11.712 69.2916 11.528 68.5076 11.528C67.7076 11.528 66.9716 11.712 66.2996 12.08C65.6436 12.432 65.1156 12.976 64.7156 13.712C64.3156 14.448 64.1156 15.344 64.1156 16.4C64.1156 17.472 64.3076 18.376 64.6916 19.112C65.0916 19.848 65.6196 20.4 66.2756 20.768C66.9316 21.12 67.6516 21.296 68.4356 21.296ZM79.2271 7.712C78.8111 7.712 78.4591 7.568 78.1711 7.28C77.8991 6.992 77.7631 6.64 77.7631 6.224C77.7631 5.808 77.8991 5.456 78.1711 5.168C78.4591 4.88 78.8111 4.736 79.2271 4.736C79.6431 4.736 79.9871 4.88 80.2591 5.168C80.5471 5.456 80.6911 5.808 80.6911 6.224C80.6911 6.64 80.5471 6.992 80.2591 7.28C79.9871 7.568 79.6431 7.712 79.2271 7.712ZM80.3071 25.856C80.3071 27.024 80.0111 27.88 79.4191 28.424C78.8271 28.968 77.9631 29.24 76.8271 29.24H75.5551V27.392H76.4671C77.0751 27.392 77.4991 27.272 77.7391 27.032C77.9951 26.792 78.1231 26.384 78.1231 25.808V9.848H80.3071V25.856ZM96.0043 15.92C96.0043 16.336 95.9803 16.776 95.9323 17.24H85.4203C85.5003 18.536 85.9403 19.552 86.7403 20.288C87.5563 21.008 88.5403 21.368 89.6923 21.368C90.6363 21.368 91.4203 21.152 92.0443 20.72C92.6843 20.272 93.1323 19.68 93.3883 18.944H95.7403C95.3883 20.208 94.6843 21.24 93.6283 22.04C92.5723 22.824 91.2603 23.216 89.6923 23.216C88.4443 23.216 87.3243 22.936 86.3323 22.376C85.3563 21.816 84.5883 21.024 84.0283 20C83.4683 18.96 83.1883 17.76 83.1883 16.4C83.1883 15.04 83.4603 13.848 84.0043 12.824C84.5483 11.8 85.3083 11.016 86.2843 10.472C87.2763 9.912 88.4123 9.632 89.6923 9.632C90.9403 9.632 92.0443 9.904 93.0043 10.448C93.9643 10.992 94.7003 11.744 95.2123 12.704C95.7403 13.648 96.0043 14.72 96.0043 15.92ZM93.7483 15.464C93.7483 14.632 93.5643 13.92 93.1963 13.328C92.8283 12.72 92.3243 12.264 91.6843 11.96C91.0603 11.64 90.3643 11.48 89.5963 11.48C88.4923 11.48 87.5483 11.832 86.7643 12.536C85.9963 13.24 85.5563 14.216 85.4443 15.464H93.7483ZM98.0711 16.4C98.0711 15.04 98.3431 13.856 98.8871 12.848C99.4311 11.824 100.183 11.032 101.143 10.472C102.119 9.912 103.231 9.632 104.479 9.632C106.095 9.632 107.423 10.024 108.463 10.808C109.519 11.592 110.215 12.68 110.551 14.072H108.199C107.975 13.272 107.535 12.64 106.879 12.176C106.239 11.712 105.439 11.48 104.479 11.48C103.231 11.48 102.223 11.912 101.455 12.776C100.687 13.624 100.303 14.832 100.303 16.4C100.303 17.984 100.687 19.208 101.455 20.072C102.223 20.936 103.231 21.368 104.479 21.368C105.439 21.368 106.239 21.144 106.879 20.696C107.519 20.248 107.959 19.608 108.199 18.776H110.551C110.199 20.12 109.495 21.2 108.439 22.016C107.383 22.816 106.063 23.216 104.479 23.216C103.231 23.216 102.119 22.936 101.143 22.376C100.183 21.816 99.4311 21.024 98.8871 20C98.3431 18.976 98.0711 17.776 98.0711 16.4ZM116.129 11.648V19.4C116.129 20.04 116.265 20.496 116.537 20.768C116.809 21.024 117.281 21.152 117.953 21.152H119.561V23H117.593C116.377 23 115.465 22.72 114.857 22.16C114.249 21.6 113.945 20.68 113.945 19.4V11.648H112.241V9.848H113.945V6.536H116.129V9.848H119.561V11.648H116.129ZM124.391 11.984C124.775 11.232 125.319 10.648 126.023 10.232C126.743 9.816 127.615 9.608 128.639 9.608V11.864H128.063C125.615 11.864 124.391 13.192 124.391 15.848V23H122.207V9.848H124.391V11.984ZM142.825 9.848V23H140.641V21.056C140.225 21.728 139.641 22.256 138.889 22.64C138.153 23.008 137.337 23.192 136.441 23.192C135.417 23.192 134.497 22.984 133.681 22.568C132.865 22.136 132.217 21.496 131.737 20.648C131.273 19.8 131.041 18.768 131.041 17.552V9.848H133.201V17.264C133.201 18.56 133.529 19.56 134.185 20.264C134.841 20.952 135.737 21.296 136.873 21.296C138.041 21.296 138.961 20.936 139.633 20.216C140.305 19.496 140.641 18.448 140.641 17.072V9.848H142.825ZM162.328 9.608C163.352 9.608 164.264 9.824 165.064 10.256C165.864 10.672 166.496 11.304 166.96 12.152C167.424 13 167.656 14.032 167.656 15.248V23H165.496V15.56C165.496 14.248 165.168 13.248 164.512 12.56C163.872 11.856 163 11.504 161.896 11.504C160.76 11.504 159.856 11.872 159.184 12.608C158.512 13.328 158.176 14.376 158.176 15.752V23H156.016V15.56C156.016 14.248 155.688 13.248 155.032 12.56C154.392 11.856 153.52 11.504 152.416 11.504C151.28 11.504 150.376 11.872 149.704 12.608C149.032 13.328 148.696 14.376 148.696 15.752V23H146.512V9.848H148.696V11.744C149.128 11.056 149.704 10.528 150.424 10.16C151.16 9.792 151.968 9.608 152.848 9.608C153.952 9.608 154.928 9.856 155.776 10.352C156.624 10.848 157.256 11.576 157.672 12.536C158.04 11.608 158.648 10.888 159.496 10.376C160.344 9.864 161.288 9.608 162.328 9.608Z" fill="#101010"/>
<defs>
<clipPath id="clip0_40_17">
<rect width="34.3636" height="28" fill="white" transform="translate(0.863525)"/>
</clipPath>
</defs>
</svg>
