<svg width="689" height="153" viewBox="0 0 689 153" fill="none" xmlns="http://www.w3.org/2000/svg">
<g clip-path="url(#clip0_204_84)">
<path d="M112.664 93.8864H75.1091C69.9248 93.8864 65.7204 98.0907 65.7204 103.275V140.83C65.7204 146.014 69.9248 150.218 75.1091 150.218H112.664C117.848 150.218 122.052 146.014 122.052 140.83V103.275C122.052 98.0907 117.848 93.8864 112.664 93.8864ZM56.3318 9.38864C56.3318 4.20435 52.1275 0 46.9432 0H9.38864C4.20435 0 0 4.20435 0 9.38864V46.9432C0 52.1275 4.20435 56.3318 9.38864 56.3318H37.4724L58.9372 93.8981C62.1938 88.306 68.185 84.4977 75.1091 84.4977H75.1912L56.3318 51.4937V37.5545H122.052V18.7773H56.3318V9.38864ZM178.384 0H140.83C135.645 0 131.441 4.20435 131.441 9.38864V46.9432C131.441 52.1275 135.645 56.3318 140.83 56.3318H178.384C183.568 56.3318 187.773 52.1275 187.773 46.9432V9.38864C187.773 4.20435 183.568 0 178.384 0Z" fill="white"/>
<rect x="65.4269" y="93.8863" width="56.9186" height="56.3318" rx="8.80185" fill="white"/>
<circle cx="28.4593" cy="28.4593" r="7.33487" fill="white"/>
</g>
<path d="M274.816 64.766C274.816 69.6063 273.147 73.64 269.808 76.8669C266.526 80.0381 261.491 81.6238 254.703 81.6238H243.52V105.909H235.926V47.7412H254.703C261.268 47.7412 266.248 49.3269 269.642 52.4981C273.091 55.6694 274.816 59.7587 274.816 64.766ZM254.703 75.3647C258.932 75.3647 262.047 74.4467 264.05 72.6107C266.053 70.7747 267.054 68.1598 267.054 64.766C267.054 57.5889 262.937 54.0003 254.703 54.0003H243.52V75.3647H254.703ZM291.849 67.6034C293.184 64.9885 295.076 62.9578 297.524 61.5112C300.027 60.0647 303.06 59.3414 306.62 59.3414V67.1861H304.617C296.105 67.1861 291.849 71.804 291.849 81.0396V105.909H284.255V60.176H291.849V67.6034ZM335.333 106.66C331.049 106.66 327.154 105.687 323.649 103.739C320.2 101.792 317.473 99.038 315.47 95.4772C313.523 91.8609 312.55 87.6881 312.55 82.9591C312.55 78.2856 313.551 74.1685 315.554 70.6078C317.612 66.9914 320.394 64.2374 323.899 62.3458C327.404 60.3985 331.327 59.4249 335.666 59.4249C340.006 59.4249 343.928 60.3985 347.434 62.3458C350.939 64.2374 353.693 66.9636 355.696 70.5243C357.754 74.0851 358.783 78.23 358.783 82.9591C358.783 87.6881 357.726 91.8609 355.612 95.4772C353.554 99.038 350.744 101.792 347.183 103.739C343.622 105.687 339.672 106.66 335.333 106.66ZM335.333 99.9838C338.059 99.9838 340.618 99.344 343.01 98.0643C345.403 96.7847 347.322 94.8652 348.769 92.306C350.271 89.7467 351.022 86.6311 351.022 82.9591C351.022 79.2871 350.299 76.1714 348.852 73.6121C347.406 71.0529 345.514 69.1612 343.177 67.9372C340.841 66.6576 338.309 66.0178 335.583 66.0178C332.801 66.0178 330.242 66.6576 327.905 67.9372C325.624 69.1612 323.788 71.0529 322.397 73.6121C321.006 76.1714 320.311 79.2871 320.311 82.9591C320.311 86.6867 320.978 89.8301 322.314 92.3894C323.705 94.9487 325.541 96.8681 327.822 98.1478C330.103 99.3718 332.606 99.9838 335.333 99.9838ZM372.858 52.7485C371.411 52.7485 370.187 52.2478 369.186 51.2463C368.24 50.2449 367.767 49.0209 367.767 47.5743C367.767 46.1278 368.24 44.9038 369.186 43.9023C370.187 42.9009 371.411 42.4001 372.858 42.4001C374.304 42.4001 375.501 42.9009 376.446 43.9023C377.448 44.9038 377.949 46.1278 377.949 47.5743C377.949 49.0209 377.448 50.2449 376.446 51.2463C375.501 52.2478 374.304 52.7485 372.858 52.7485ZM376.613 115.84C376.613 119.902 375.584 122.878 373.526 124.77C371.467 126.661 368.463 127.607 364.512 127.607H360.089V121.181H363.261C365.375 121.181 366.849 120.764 367.684 119.929C368.574 119.095 369.019 117.676 369.019 115.673V60.176H376.613V115.84ZM431.197 81.29C431.197 82.7365 431.113 84.2665 430.946 85.88H394.393C394.671 90.3865 396.201 93.9194 398.983 96.4787C401.821 98.9823 405.242 100.234 409.248 100.234C412.531 100.234 415.257 99.4831 417.427 97.9809C419.652 96.4231 421.21 94.3645 422.1 91.8052H430.279C429.055 96.2005 426.607 99.7891 422.935 102.571C419.263 105.297 414.7 106.66 409.248 106.66C404.908 106.66 401.014 105.687 397.564 103.739C394.171 101.792 391.5 99.038 389.553 95.4772C387.605 91.8609 386.632 87.6881 386.632 82.9591C386.632 78.23 387.578 74.0851 389.469 70.5243C391.361 66.9636 394.004 64.2374 397.397 62.3458C400.847 60.3985 404.797 59.4249 409.248 59.4249C413.588 59.4249 417.427 60.3707 420.765 62.2623C424.103 64.154 426.662 66.7689 428.443 70.1071C430.279 73.3896 431.197 77.1172 431.197 81.29ZM423.352 79.7043C423.352 76.8112 422.712 74.3354 421.432 72.2769C420.153 70.1627 418.4 68.5771 416.175 67.52C414.005 66.4072 411.585 65.8509 408.914 65.8509C405.075 65.8509 401.793 67.0749 399.067 69.5229C396.396 71.9709 394.866 75.3647 394.477 79.7043H423.352ZM438.383 82.9591C438.383 78.23 439.329 74.1129 441.221 70.6078C443.112 67.0471 445.727 64.2931 449.066 62.3458C452.459 60.3985 456.326 59.4249 460.666 59.4249C466.285 59.4249 470.903 60.788 474.519 63.5141C478.191 66.2403 480.611 70.0236 481.78 74.864H473.601C472.822 72.0821 471.292 69.8845 469.011 68.2711C466.786 66.6576 464.004 65.8509 460.666 65.8509C456.326 65.8509 452.821 67.3531 450.15 70.3574C447.48 73.3061 446.145 77.5067 446.145 82.9591C446.145 88.4671 447.48 92.7232 450.15 95.7276C452.821 98.732 456.326 100.234 460.666 100.234C464.004 100.234 466.786 99.4552 469.011 97.8974C471.237 96.3396 472.767 94.1141 473.601 91.2211H481.78C480.556 95.8945 478.108 99.65 474.436 102.487C470.764 105.269 466.174 106.66 460.666 106.66C456.326 106.66 452.459 105.687 449.066 103.739C445.727 101.792 443.112 99.038 441.221 95.4772C439.329 91.9165 438.383 87.7438 438.383 82.9591ZM501.176 66.4351V93.3909C501.176 95.6163 501.649 97.202 502.595 98.1478C503.541 99.038 505.182 99.4831 507.519 99.4831H513.11V105.909H506.267C502.039 105.909 498.867 104.935 496.753 102.988C494.639 101.041 493.582 97.8418 493.582 93.3909V66.4351H487.657V60.176H493.582V48.6592H501.176V60.176H513.11V66.4351H501.176ZM529.906 67.6034C531.242 64.9885 533.133 62.9578 535.581 61.5112C538.085 60.0647 541.117 59.3414 544.678 59.3414V67.1861H542.675C534.162 67.1861 529.906 71.804 529.906 81.0396V105.909H522.312V60.176H529.906V67.6034ZM594.003 60.176V105.909H586.409V99.1492C584.962 101.486 582.932 103.322 580.317 104.657C577.757 105.937 574.92 106.577 571.804 106.577C568.244 106.577 565.045 105.853 562.207 104.407C559.37 102.905 557.116 100.679 555.447 97.7305C553.834 94.7818 553.027 91.1932 553.027 86.9649V60.176H560.538V85.9634C560.538 90.47 561.679 93.9472 563.96 96.3952C566.241 98.7876 569.356 99.9838 573.307 99.9838C577.368 99.9838 580.567 98.732 582.904 96.2283C585.241 93.7247 586.409 90.0805 586.409 85.2958V60.176H594.003ZM661.822 59.3414C665.383 59.3414 668.554 60.0925 671.336 61.5947C674.118 63.0412 676.316 65.2389 677.929 68.1876C679.543 71.1363 680.349 74.7249 680.349 78.9532V105.909H672.838V80.0381C672.838 75.476 671.698 71.9987 669.417 69.6063C667.191 67.1583 664.159 65.9343 660.32 65.9343C656.37 65.9343 653.227 67.214 650.89 69.7732C648.553 72.2769 647.385 75.9211 647.385 80.7058V105.909H639.874V80.0381C639.874 75.476 638.733 71.9987 636.452 69.6063C634.227 67.1583 631.195 65.9343 627.356 65.9343C623.406 65.9343 620.262 67.214 617.925 69.7732C615.589 72.2769 614.42 75.9211 614.42 80.7058V105.909H606.826V60.176H614.42V66.7689C615.922 64.3765 617.925 62.5405 620.429 61.2609C622.988 59.9812 625.798 59.3414 628.858 59.3414C632.697 59.3414 636.091 60.2038 639.039 61.9285C641.988 63.6532 644.186 66.1847 645.632 69.5229C646.912 66.296 649.026 63.7923 651.975 62.012C654.924 60.2316 658.206 59.3414 661.822 59.3414Z" fill="white"/>
<defs>
<clipPath id="clip0_204_84">
<rect width="187.773" height="150.218" fill="white"/>
</clipPath>
</defs>
</svg>
